<?xml version="1.0" standalone="no"?><!DOCTYPE svg PUBLIC "-//W3C//DTD SVG 1.1//EN" "http://www.w3.org/Graphics/SVG/1.1/DTD/svg11.dtd"><svg xmlns="http://www.w3.org/2000/svg" width="1024" height="800" viewBox="0 0 1024 800"><g class="sankey" transform="translate(500,10)"><g class="groups"/><g class="links"><g class="link" style="opacity: 0.8;"><path d="M1,149.09504427025138 A62.71821464496403 62.71821464496403 0.5035589857222753 0 0 31.264411030881195,141.3098786322891 L128.91585245725875,87.51050986415062 A68.5616734723183 68.5616734723183 0.5035589857222753 0 1 162,79 L162,84.84345882735428 A62.71821464496403 62.71821464496403 0.5035589857222753 0 0 131.73558896911882,92.62862446531655 L34.08414754274124,146.42799323345503 A68.5616734723183 68.5616734723183 0.5035589857222753 0 1 1,154.93850309760563 ZM162,79 A0 0 0 0 0 162,79 L323,79 A0 0 0 0 0 323,79 L323,84.84345882735428 A0 0 0 0 0 323,84.84345882735428 L162,84.84345882735428 A0 0 0 0 0 162,84.84345882735428 Z" style="fill: rgb(158, 218, 229);"/><title>Bound rate, simple mean, all products (%) → Time required to start a business (days)
Time required to start a business (days)
17.0m</title><text class="label" dy="0.35em" x="5" y="152.0167736839285"/></g><g class="link" style="opacity: 0.8;"><path d="M1,160.78196192495994 A76.82299137112946 76.82299137112946 1.2783874856504778 0 1 74.56203074223811,215.4599846511207 L115.93906975984473,352.9078657041157 A48.10278360564445 48.10278360564445 1.2783874856504778 0 0 162,387.1445577182912 L162,392.9880165456455 A53.946242432998716 53.946242432998716 1.2783874856504778 0 1 110.34365242153498,354.5922991035493 L68.96661340392836,217.14441805055424 A70.97953254377518 70.97953254377518 1.2783874856504778 0 0 1,166.6254207523142 ZM162,387.1445577182912 A126.83525251540853 126.83525251540853 0.23284558943867295 0 0 191.26688592351945,383.72174650839753 L291.53918698114063,359.9424746189672 A136.34317549242104 136.34317549242104 0.23284558943867295 0 1 323,356.2630799695083 L323,362.1065387968626 A130.49971666506679 130.49971666506679 0.23284558943867295 0 0 292.8875490453718,365.628240249973 L192.61524798775065,389.4075121394033 A132.6787113427628 132.6787113427628 0.23284558943867295 0 1 162,392.9880165456455 Z" style="fill: rgb(31, 119, 180);"/><title>Bound rate, simple mean, all products (%) → Firms that do not report all sales for tax purposes (% of firms)
Firms that do not report all sales for tax purposes (% of firms)
17.0m</title><text class="label" dy="0.35em" x="5" y="163.70369133863707"/></g><g class="link" style="opacity: 0.8;"><path d="M1,154.93850309760566 A82.66645019848374 82.66645019848374 1.0158361528817033 0 1 71.25998720904818,194.04721935821357 L111.54713112904271,259.03164257327336 A58.77351407004793 58.77351407004793 1.0158361528817033 0 0 161.5,286.83683657743677 L161.5,292.6802954047911 A64.6169728974022 64.6169728974022 1.0158361528817033 0 1 106.5806502715637,262.1106162593057 L66.29350635156916,197.12619304424584 A76.82299137112946 76.82299137112946 1.0158361528817033 0 0 1,160.78196192495992 Z" style="fill: rgb(214, 39, 40);"/><title>Bound rate, simple mean, all products (%) → Unemployment, total (% of total labor force)
Unemployment, total (% of total labor force)
17.0m</title><text class="label" dy="0.35em" x="5" y="157.8602325112828"/></g><g class="link" style="opacity: 0.8;"><path d="M1,166.62542075231423 A70.97953254377518 70.97953254377518 1.47450525827748 0 1 71.65072667432122,230.78081521694753 L97.16566289107135,494.9385394388809 A65.1360737164209 65.1360737164209 1.47450525827748 0 0 162,553.8122788591456 L162,559.6557376864998 A70.97953254377518 70.97953254377518 1.47450525827748 0 1 91.34927332567878,495.50034322186656 L65.83433710892865,231.34261899993317 A65.1360737164209 65.1360737164209 1.47450525827748 0 0 1,172.46887957966848 ZM162,553.8122788591456 A71.10414261440053 71.10414261440053 0.4882978674244356 0 1 195.35661426714287,562.1220317435547 L288.420383370388,611.5578533443615 A73.71113784785896 73.71113784785896 0.4882978674244356 0 0 323,620.1722788591455 L323,626.0157376864997 A79.55459667521325 79.55459667521325 0.4882978674244356 0 1 285.67908033341826,616.7184026103298 L192.6153112301731,567.2825810095229 A65.26068378704625 65.26068378704625 0.4882978674244356 0 0 162,559.6557376864998 Z" style="fill: rgb(255, 127, 14);"/><title>Bound rate, simple mean, all products (%) → Vulnerable employment, total (% of total employment)
Vulnerable employment, total (% of total employment)
17.0m</title><text class="label" dy="0.35em" x="5" y="169.54715016599135"/></g><g class="link" style="opacity: 0.8;"><path d="M1,687.3758790881345 A70.10372887085046 70.10372887085046 1.5643648269248904 0 0 71.10227898384764,617.7230192320835 L73.44118056607012,254.06456001054283 A88.56065104744007 88.56065104744007 1.5643648269248904 0 1 162,166.0734828521226 L162,171.97951308008896 A82.6546208194737 82.6546208194737 1.5643648269248904 0 0 79.34708864537758,254.10254438131955 L77.0081870631551,617.7610036028602 A76.00975909881683 76.00975909881683 1.5643648269248904 0 1 1,693.2819093161008 ZM162,166.0734828521226 A85.67676336702951 85.67676336702951 0.36636473891865684 0 0 192.69145546416442,160.38760860717485 L281.2540415723441,126.40730538561614 A116.5359722321499 116.5359722321499 0.36636473891865684 0 1 323,118.67348285212262 L323,124.57951308008899 A110.62994200418353 110.62994200418353 0.36636473891865684 0 0 283.3697221441593,131.92138634001788 L194.8071360359797,165.90168956157657 A91.58279359499588 91.58279359499588 0.36636473891865684 0 1 162,171.97951308008896 Z" style="fill: rgb(158, 218, 229);"/><title>Tariff rate, most favored nation, simple mean, primary products (%) → Time required to start a business (days)
Time required to start a business (days)
17.1m</title><text class="label" dy="0.35em" x="5" y="690.3288942021177"/></g><g class="link" style="opacity: 0.8;"><path d="M1,699.1879395440674 A81.9157893267832 81.9157893267832 1.3356367143612875 0 0 80.66123451666684,636.3583823313116 L109.60847566726578,515.5397235131794 A53.87429777844302 53.87429777844302 1.3356367143612875 0 1 162,474.2180405704138 L162,480.1240707983802 A47.96826755047664 47.96826755047664 1.3356367143612875 0 0 115.35195519568343,516.9158179722555 L86.40471404508449,637.7344767903877 A87.82181955474957 87.82181955474957 1.3356367143612875 0 1 1,705.0939697720337 ZM162,474.2180405704138 A58.15002102350654 58.15002102350654 0.608341437131677 0 0 195.23315773183108,463.7857539043293 L267.75257124835787,413.27939310432697 A96.66969264029845 96.66969264029845 0.608341437131677 0 1 323,395.9365628216309 L323,401.8425930495973 A90.76366241233208 90.76366241233208 0.608341437131677 0 0 271.1279102539212,418.12586394930014 L198.6084967373944,468.63222474930245 A64.05605125147291 64.05605125147291 0.608341437131677 0 1 162,480.1240707983802 Z" style="fill: rgb(31, 119, 180);"/><title>Tariff rate, most favored nation, simple mean, primary products (%) → Firms that do not report all sales for tax purposes (% of firms)
Firms that do not report all sales for tax purposes (% of firms)
17.1m</title><text class="label" dy="0.35em" x="5" y="702.1409546580505"/></g><g class="link" style="opacity: 0.8;"><path d="M1,693.281909316101 A76.00975909881683 76.00975909881683 1.3929967480208036 0 0 75.8114843350357,630.715560865214 L115.42026269470672,410.2959382420873 A46.81780829566844 46.81780829566844 1.3929967480208036 0 1 161.5,371.7585274903248 L161.5,377.66455771829123 A40.91177806770207 40.91177806770207 1.3929967480208036 0 0 121.23318583931687,411.3405039741062 L81.62440747964585,631.760126597233 A81.9157893267832 81.9157893267832 1.3929967480208036 0 1 1,699.1879395440673 Z" style="fill: rgb(214, 39, 40);"/><title>Tariff rate, most favored nation, simple mean, primary products (%) → Unemployment, total (% of total labor force)
Unemployment, total (% of total labor force)
17.1m</title><text class="label" dy="0.35em" x="5" y="696.2349244300841"/></g><g class="link" style="opacity: 0.8;"><path d="M1,705.0939697720338 A87.82181955474957 87.82181955474957 0.4877077704860817 0 0 42.153492943404885,694.8547643035865 L127.90260910126055,649.3693718833205 A72.7640522498284 72.7640522498284 0.4877077704860817 0 1 162,640.8857617112682 L162,646.7917919392345 A66.85802202186203 66.85802202186203 0.4877077704860817 0 0 130.6701875292915,654.5868140438384 L44.921071371435815,700.0722064641045 A93.72784978271594 93.72784978271594 0.4877077704860817 0 1 1,711.0000000000001 ZM162,640.8857617112682 A209.59646131651445 209.59646131651445 0.14339111242316038 0 1 191.95138454720686,643.0368298272815 L293.89258858761684,657.7553066095957 A203.69043108854808 203.69043108854808 0.14339111242316038 0 0 323,659.8457617112682 L323,665.7517919392345 A209.59646131651445 209.59646131651445 0.14339111242316038 0 1 293.0486154527931,663.6007238232212 L191.1074114123832,648.882247040907 A203.69043108854808 203.69043108854808 0.14339111242316038 0 0 162,646.7917919392345 Z" style="fill: rgb(255, 127, 14);"/><title>Tariff rate, most favored nation, simple mean, primary products (%) → Vulnerable employment, total (% of total employment)
Vulnerable employment, total (% of total employment)
17.1m</title><text class="label" dy="0.35em" x="5" y="708.046984886017"/></g><g class="link" style="opacity: 0.8;"><path d="M162.5,245.6677211408544 A59.2699891578477 59.2699891578477 0.5423720044651101 0 0 193.0933329420655,237.16169158297598 L289.2519736669179,179.2108671371688 A65.38173394341811 65.38173394341811 0.5423720044651101 0 1 323,169.8277211408544 L323,175.93946592642482 A59.2699891578477 59.2699891578477 0.5423720044651101 0 0 292.4066670579345,184.44549548430325 L196.24802633308212,242.39631993011042 A65.38173394341811 65.38173394341811 0.5423720044651101 0 1 162.5,251.77946592642482 Z" style="fill: rgb(158, 218, 229);"/><title>Tariff rate, applied, simple mean, manufactured products (%) → Time required to start a business (days)
Time required to start a business (days)
17.7m</title><text class="label" dy="0.35em" x="166.5" y="248.72359353363962"/></g><g class="link" style="opacity: 0.8;"><path d="M162.5,251.77946592642485 A72.5807463391287 72.5807463391287 0.6596463753943728 0 1 206.98019971987785,267.0062536225381 L290.5103679175794,331.78711011397087 A53.015088953657866 53.015088953657866 0.6596463753943728 0 0 323,342.9091988896372 L323,349.0209436752076 A59.12683373922829 59.12683373922829 0.6596463753943728 0 1 286.7648618100934,336.61666582052743 L203.2346936123919,271.8358093290947 A66.46900155355829 66.46900155355829 0.6596463753943728 0 0 162.5,257.89121071199526 Z" style="fill: rgb(31, 119, 180);"/><title>Tariff rate, applied, simple mean, manufactured products (%) → Firms that do not report all sales for tax purposes (% of firms)
Firms that do not report all sales for tax purposes (% of firms)
17.7m</title><text class="label" dy="0.35em" x="166.5" y="254.83533831921005"/></g><g class="link" style="opacity: 0.8;"><path d="M1,114.61271788949082 A51.2343158555569 51.2343158555569 1.0177731882540815 0 1 44.59735295749438,138.93558755041477 L116.68796914680601,255.72455593946722 A52.66176928447751 52.66176928447751 1.0177731882540815 0 0 161.5,280.72509179186636 L161.5,286.83683657743677 A58.77351407004793 58.77351407004793 1.0177731882540815 0 1 111.48723814936577,258.9348240616357 L39.39662196005412,142.14585567258325 A45.12257106998648 45.12257106998648 1.0177731882540815 0 0 1,120.72446267506123 Z" style="fill: rgb(214, 39, 40);"/><title>Fuel exports (% of merchandise exports) → Unemployment, total (% of total labor force)
Unemployment, total (% of total labor force)
17.7m</title><text class="label" dy="0.35em" x="5" y="117.66859028227603"/></g><g class="link" style="opacity: 0.8;"><path d="M162.5,257.89121071199526 A66.46900155355829 66.46900155355829 1.4262181000348677 0 1 228.275514567472,314.78368622991763 L263.27246492341953,555.1571169905925 A60.35725676798786 60.35725676798786 1.4262181000348677 0 0 323,606.8183977792744 L323,612.9301425648448 A66.46900155355829 66.46900155355829 1.4262181000348677 0 1 257.224485432528,556.0376670469224 L222.22753507658047,315.6642362862475 A60.35725676798786 60.35725676798786 1.4262181000348677 0 0 162.5,264.00295549756567 Z" style="fill: rgb(255, 127, 14);"/><title>Tariff rate, applied, simple mean, manufactured products (%) → Vulnerable employment, total (% of total employment)
Vulnerable employment, total (% of total employment)
17.7m</title><text class="label" dy="0.35em" x="166.5" y="260.94708310478046"/></g><g class="link" style="opacity: 0.8;"><path d="M1,430.72303117404437 A54.688920196236865 54.688920196236865 1.3433763041939022 0 0 54.280753276448564,388.36453361957365 L102.73839158859153,178.97516017479973 A60.82784446189015 60.82784446189015 1.3433763041939022 0 1 162,131.86184925848744 L162,138.0007735241407 A54.688920196236865 54.688920196236865 1.3433763041939022 0 0 108.71924672355144,180.3592710786114 L60.261608411408474,389.74864452338534 A60.82784446189015 60.82784446189015 1.3433763041939022 0 1 1,436.8619554396976 ZM162,131.86184925848744 A137.06283533552786 137.06283533552786 0.21392953296956985 0 0 191.09864351343813,128.73739444136015 L292.5980537471654,106.68624566843852 A143.20175960118112 143.20175960118112 0.21392953296956985 0 1 323,103.42184925848744 L323,109.56077352414073 A137.06283533552786 137.06283533552786 0.21392953296956985 0 0 293.9013564865619,112.68522834126802 L192.40194625283462,134.73637711418962 A143.20175960118112 143.20175960118112 0.21392953296956985 0 1 162,138.0007735241407 Z" style="fill: rgb(158, 218, 229);"/><title>Import value index (2000 = 100) → Time required to start a business (days)
Time required to start a business (days)
17.8m</title><text class="label" dy="0.35em" x="5" y="433.792493306871"/></g><g class="link" style="opacity: 0.8;"><path d="M1,443.0008797053509 A996.9305378671734 996.9305378671734 0.021455786675566246 0 0 22.388287843524193,442.7714196319432 L140.48000681266691,440.23728002527247 A1003.0694621328266 1003.0694621328266 0.021455786675566246 0 1 162,440.00640697677863 L162,446.1453312424319 A996.9305378671734 996.9305378671734 0.021455786675566246 0 0 140.61171215647582,446.37479131583956 L22.519993187333096,448.9089309225103 A1003.0694621328266 1003.0694621328266 0.021455786675566246 0 1 1,449.13980397100414 ZM162,440.00640697677863 A70.96600233998834 70.96600233998834 0.4677814072153499 0 0 193.99907753862516,432.38259061735374 L272.5338742736626,392.7085406725704 A111.92132623393363 111.92132623393363 0.4677814072153499 0 1 323,380.6849292279957 L323,386.823853493649 A105.78240196828034 105.78240196828034 0.4677814072153499 0 0 275.3019590903791,398.18796560470423 L196.7671623553416,437.8620155494876 A77.10492660564162 77.10492660564162 0.4677814072153499 0 1 162,446.1453312424319 Z" style="fill: rgb(31, 119, 180);"/><title>Import value index (2000 = 100) → Firms that do not report all sales for tax purposes (% of firms)
Firms that do not report all sales for tax purposes (% of firms)
17.8m</title><text class="label" dy="0.35em" x="5" y="446.0703418381775"/></g><g class="link" style="opacity: 0.8;"><path d="M1,436.8619554396976 A60.82784446189015 60.82784446189015 0.8760087368741529 0 0 47.727324123288184,414.9774524132451 L92.59101396502768,361.14642252904537 A89.70308407779838 89.70308407779838 0.8760087368741529 0 1 161.5,328.87325170819486 L161.5,335.0121759738481 A83.56415981214509 83.56415981214509 0.8760087368741529 0 0 97.30687240892209,365.076698635959 L52.44318256718259,418.90772852015874 A66.96676872754344 66.96676872754344 0.8760087368741529 0 1 1,443.0008797053509 Z" style="fill: rgb(214, 39, 40);"/><title>Import value index (2000 = 100) → Unemployment, total (% of total labor force)
Unemployment, total (% of total labor force)
17.8m</title><text class="label" dy="0.35em" x="5" y="439.93141757252425"/></g><g class="link" style="opacity: 0.8;"><path d="M1,449.13980397100414 A51.22783672037914 51.22783672037914 0.9567499863863689 0 1 42.869704428609246,470.85121973438504 L125.14778139487993,587.5645153114807 A45.08891245472585 45.08891245472585 0.9567499863863689 0 0 162,606.674128117633 L162,612.8130523832863 A51.22783672037914 51.22783672037914 0.9567499863863689 0 1 120.13029557139075,591.1016366199054 L37.85221860512008,474.38834104280977 A45.08891245472585 45.08891245472585 0.9567499863863689 0 0 1,455.2787282366574 ZM162,606.674128117633 A110.65718523409227 110.65718523409227 0.28312951723777013 0 1 192.91340482647607,611.0798472631737 L293.8015769040076,640.4328248779642 A104.51826096843898 104.51826096843898 0.28312951723777013 0 0 323,644.5941281176331 L323,650.7330523832863 A110.65718523409227 110.65718523409227 0.28312951723777013 0 1 292.0865951735239,646.3273332377456 L191.1984230959924,616.9743556229552 A104.51826096843898 104.51826096843898 0.28312951723777013 0 0 162,612.8130523832863 Z" style="fill: rgb(255, 127, 14);"/><title>Import value index (2000 = 100) → Vulnerable employment, total (% of total employment)
Vulnerable employment, total (% of total employment)
17.8m</title><text class="label" dy="0.35em" x="5" y="452.20926610383077"/></g><g class="link" style="opacity: 0.8;"><path d="M162.5,273.4829554975657 A50.623939663424785 50.623939663424785 0.6720323738188452 0 0 194.01733703775997,262.4751834061603 L286.97387024522874,188.52198281866123 A57.866075957725464 57.866075957725464 0.6720323738188452 0 1 323,175.93946592642482 L323,183.1816022207255 A50.623939663424785 50.623939663424785 0.6720323738188452 0 0 291.48266296224,194.18937431213095 L198.5261297547713,268.14257489963 A57.866075957725464 57.866075957725464 0.6720323738188452 0 1 162.5,280.7250917918664 Z" style="fill: rgb(158, 218, 229);"/><title>Unemployment, total (% of total labor force) → Time required to start a business (days)
Time required to start a business (days)
21.0m</title><text class="label" dy="0.35em" x="166.5" y="277.10402364471605"/></g><g class="link" style="opacity: 0.8;"><path d="M162.5,280.72509179186636 A71.49834460685085 71.49834460685085 0.4952169723820383 0 1 196.47762700295812,289.31450106542894 L292.96534750902686,341.4283027114425 A63.201233381002496 63.201233381002496 0.4952169723820383 0 0 323,349.0209436752076 L323,356.26307996950834 A70.44336967530317 70.44336967530317 0.4952169723820383 0 1 289.5237208942373,347.80040945486724 L193.03600038816853,295.6866078088537 A64.25620831255017 64.25620831255017 0.4952169723820383 0 0 162.5,287.9672280861671 Z" style="fill: rgb(31, 119, 180);"/><title>Unemployment, total (% of total labor force) → Firms that do not report all sales for tax purposes (% of firms)
Firms that do not report all sales for tax purposes (% of firms)
21.0m</title><text class="label" dy="0.35em" x="166.5" y="284.34615993901673"/></g><g class="link" style="opacity: 0.8;"><path d="M1,79 A52.66176928447751 52.66176928447751 1.0922688761440593 0 1 47.746480937872676,107.41247106583528 L121.18217481811219,248.97781589272077 A45.41963299017683 45.41963299017683 1.0922688761440593 0 0 161.5,273.4829554975657 L161.5,280.7250917918664 A52.66176928447751 52.66176928447751 1.0922688761440593 0 1 114.75351906212732,252.3126207260311 L41.31782518188783,110.74727589914563 A45.41963299017683 45.41963299017683 1.0922688761440593 0 0 1,86.24213629430068 Z" style="fill: rgb(214, 39, 40);"/><title>Electricity production from renewable sources, excluding hydroelectric (% of total) → Unemployment, total (% of total labor force)
Unemployment, total (% of total labor force)
21.0m</title><text class="label" dy="0.35em" x="5" y="82.62106814715034"/></g><g class="link" style="opacity: 0.8;"><path d="M162.5,287.96722808616704 A64.25620831255017 64.25620831255017 1.425682072430547 0 1 226.08083640051615,342.9316362869713 L257.2296281640849,556.0729231609401 A66.46900155355829 66.46900155355829 1.425682072430547 0 0 323,612.9301425648448 L323,620.1722788591455 A73.71113784785896 73.71113784785896 1.425682072430547 0 1 250.06361113615145,557.1201757859525 L218.9148193725827,343.97888891198374 A57.01407201824949 57.01407201824949 1.425682072430547 0 0 162.5,295.2093643804678 Z" style="fill: rgb(255, 127, 14);"/><title>Unemployment, total (% of total labor force) → Vulnerable employment, total (% of total employment)
Vulnerable employment, total (% of total employment)
21.0m</title><text class="label" dy="0.35em" x="166.5" y="291.5882962333174"/></g><g class="link" style="opacity: 0.8;"><path d="M1,200.8394611748586 A48.29993471896936 48.29993471896936 0.7188294268751384 0 0 32.80570875319061,188.88894989786306 L124.98676503801153,108.23061886719952 A56.20804888438713 56.20804888438713 0.7188294268751384 0 1 162,94.32345882735427 L162,102.23157299277204 A48.29993471896936 48.29993471896936 0.7188294268751384 0 0 130.1942912468094,114.18208426976759 L38.013234961988466,194.84041530043115 A56.20804888438713 56.20804888438713 0.7188294268751384 0 1 1,208.74757534027637 ZM162,94.32345882735427 A405.0668353223542 405.0668353223542 0.07193069272785424 0 0 191.11161886535805,93.27599770023016 L293.320035406352,85.91136952342553 A412.97494948777205 412.97494948777205 0.07193069272785424 0 1 323,84.84345882735427 L323,92.75157299277204 A405.0668353223542 405.0668353223542 0.07193069272785424 0 0 293.888381134642,93.79903411989615 L191.679964593648,101.16366229670078 A412.97494948777205 412.97494948777205 0.07193069272785424 0 1 162,102.23157299277204 Z" style="fill: rgb(158, 218, 229);"/><title>Bound rate, simple mean, manufactured products (%) → Time required to start a business (days)
Time required to start a business (days)
23.0m</title><text class="label" dy="0.35em" x="5" y="204.79351825756748"/></g><g class="link" style="opacity: 0.8;"><path d="M1,216.65568950569414 A74.76198407994549 74.76198407994549 1.1469806611309838 0 1 69.14752366804339,260.6724417360749 L121.2427646487362,376.14275873010496 A44.713169554283574 44.713169554283574 1.1469806611309838 0 0 162,402.46801654564547 L162,410.3761307110633 A52.621283719701346 52.621283719701346 1.1469806611309838 0 1 114.03430965801371,379.39490360695305 L61.939068677320925,263.924586612923 A66.85386991452772 66.85386991452772 1.1469806611309838 0 0 1,224.5638036711119 ZM162,402.46801654564547 A97.83594323594174 97.83594323594174 0.3121631994642464 0 0 192.04718005168812,397.7397462470501 L282.92118690087875,368.4134022447317 A130.49971666506679 130.49971666506679 0.3121631994642464 0 1 323,362.10653879686254 L323,370.01465296228037 A122.59160249964901 122.59160249964901 0.3121631994642464 0 0 285.34991117478467,375.9393286365203 L194.47590432559403,405.26567263883874 A105.74405740135951 105.74405740135951 0.3121631994642464 0 1 162,410.3761307110633 Z" style="fill: rgb(31, 119, 180);"/><title>Bound rate, simple mean, manufactured products (%) → Firms that do not report all sales for tax purposes (% of firms)
Firms that do not report all sales for tax purposes (% of firms)
23.0m</title><text class="label" dy="0.35em" x="5" y="220.60974658840303"/></g><g class="link" style="opacity: 0.8;"><path d="M1,208.74757534027637 A82.67009824536326 82.67009824536326 0.6468691062963288 0 1 50.824523345765066,225.44902938807158 L122.55593264079788,279.6260299997766 A64.6169728974022 64.6169728974022 0.6468691062963288 0 0 161.5,292.680295404791 L161.5,300.58840957020885 A72.52508706281998 72.52508706281998 0.6468691062963288 0 1 117.78978348628259,285.93650477511596 L46.05837419124979,231.75950416341098 A74.76198407994549 74.76198407994549 0.6468691062963288 0 0 1,216.65568950569414 Z" style="fill: rgb(214, 39, 40);"/><title>Bound rate, simple mean, manufactured products (%) → Unemployment, total (% of total labor force)
Unemployment, total (% of total labor force)
23.0m</title><text class="label" dy="0.35em" x="5" y="212.70163242298526"/></g><g class="link" style="opacity: 0.8;"><path d="M1,224.5638036711119 A66.85386991452772 66.85386991452772 1.4178881294135146 0 1 67.07383912649966,281.23495756121685 L103.74200554827901,519.1681890689376 A58.94575574910994 58.94575574910994 1.4178881294135146 0 0 162,569.1357376864999 L162,577.0438518519177 A66.85386991452772 66.85386991452772 1.4178881294135146 0 1 95.92616087350034,520.3726979618127 L59.25799445172099,282.4394664540919 A58.94575574910994 58.94575574910994 1.4178881294135146 0 0 1,232.47191783652968 ZM162,569.1357376864999 A80.4192058168861 80.4192058168861 0.42181788385272334 0 1 194.92520454821303,576.1847890148133 L290.42878343954027,619.0424726601857 A79.55459667521325 79.55459667521325 0.42181788385272334 0 0 323,626.0157376864998 L323,633.9238518519177 A87.46271084063102 87.46271084063102 0.42181788385272334 0 1 287.19104596324786,626.2574103375252 L191.68746707192068,583.3997266921529 A72.51109165146833 72.51109165146833 0.42181788385272334 0 0 162,577.0438518519177 Z" style="fill: rgb(255, 127, 14);"/><title>Bound rate, simple mean, manufactured products (%) → Vulnerable employment, total (% of total employment)
Vulnerable employment, total (% of total employment)
23.0m</title><text class="label" dy="0.35em" x="5" y="228.5178607538208"/></g><g class="link" style="opacity: 0.8;"><path d="M1,622.5544601810168 A58.28895553195407 58.28895553195407 1.5151515882763067 0 0 59.19873769163344,567.5073047827176 L78.17897500342373,226.76271625422464 A83.95096169535351 83.95096169535351 1.5151515882763067 0 1 162,147.48077352414072 L162,156.59348285212263 A74.83825236737162 74.83825236737162 1.5151515882763067 0 0 87.27757996210379,227.26952894365797 L68.29734265031351,568.014117472151 A67.40166485993596 67.40166485993596 1.5151515882763067 0 1 1,631.6671695089988 ZM162,147.48077352414072 A103.03136843727486 103.03136843727486 0.2884694534907366 0 0 191.31090501231444,143.22356025620437 L287.2548029207854,114.75252475825306 A125.64868156013179 125.64868156013179 0.2884694534907366 0 1 323,109.56077352414073 L323,118.67348285212262 A116.5359722321499 116.5359722321499 0.2884694534907366 0 0 289.84723434791835,123.48870072900257 L193.9033364394474,151.95973622695388 A112.14407776525675 112.14407776525675 0.2884694534907366 0 1 162,156.59348285212263 Z" style="fill: rgb(158, 218, 229);"/><title>Out-of-school children of primary school age, both sexes (number) → Time required to start a business (days)
Time required to start a business (days)
26.4m</title><text class="label" dy="0.35em" x="5" y="627.1108148450078"/></g><g class="link" style="opacity: 0.8;"><path d="M1,640.7798788369805 A76.51437418791785 76.51437418791785 1.1976806147339083 0 0 72.24988932525754,592.1564122805339 L112.46149065851752,489.4321774710044 A53.198791975136224 53.198791975136224 1.1976806147339083 0 1 162,455.6253312424319 L162,464.7380405704138 A44.086082647154335 44.086082647154335 1.1976806147339083 0 0 120.94721034142746,492.7539289306056 L80.73560900816749,595.4781637401352 A85.62708351589974 85.62708351589974 1.1976806147339083 0 1 1,649.8925881649625 ZM162,455.6253312424319 A61.92599645300021 61.92599645300021 0.5411381064905916 0 0 193.89881287959776,446.77752968686013 L268.51023415664247,401.9377273801582 A105.78240196828034 105.78240196828034 0.5411381064905916 0 1 323,386.823853493649 L323,395.93656282163084 A96.66969264029845 96.66969264029845 0.5411381064905916 0 0 273.20429846451486,409.74843999616496 L198.59287718747015,454.5882423028669 A71.0387057809821 71.0387057809821 0.5411381064905916 0 1 162,464.7380405704138 Z" style="fill: rgb(31, 119, 180);"/><title>Out-of-school children of primary school age, both sexes (number) → Firms that do not report all sales for tax purposes (% of firms)
Firms that do not report all sales for tax purposes (% of firms)
26.4m</title><text class="label" dy="0.35em" x="5" y="645.3362335009715"/></g><g class="link" style="opacity: 0.8;"><path d="M1,631.6671695089987 A67.40166485993596 67.40166485993596 1.3423246903627923 0 0 66.65014431719044,579.531249865828 L107.02291013347978,405.90868085998017 A55.93051762365034 55.93051762365034 1.3423246903627923 0 1 161.5,362.6458181623429 L161.5,371.75852749032475 A46.81780829566845 46.81780829566845 1.3423246903627923 0 0 115.89881377392864,407.9726105733559 L75.52604795763929,581.5951795792038 A76.51437418791785 76.51437418791785 1.3423246903627923 0 1 1,640.7798788369806 Z" style="fill: rgb(214, 39, 40);"/><title>Out-of-school children of primary school age, both sexes (number) → Unemployment, total (% of total labor force)
Unemployment, total (% of total labor force)
26.4m</title><text class="label" dy="0.35em" x="5" y="636.2235241729896"/></g><g class="link" style="opacity: 0.8;"><path d="M1,649.8925881649624 A139.58728919200024 139.58728919200024 0.20772411229958054 0 0 29.78757148728505,646.8918540647264 L131.33308281626478,625.4896841027418 A148.69999851998216 148.69999851998216 0.20772411229958054 0 1 162,622.2930523832863 L162,631.4057617112683 A139.58728919200024 139.58728919200024 0.20772411229958054 0 0 133.21242851271495,634.4064958115042 L31.6669171837352,655.8086657734889 A148.69999851998216 148.69999851998216 0.20772411229958054 0 1 1,659.0052974929444 ZM162,622.2930523832863 A144.68865213234514 144.68865213234514 0.2139295329695703 0 1 192.7176157455985,625.5913436745171 L294.21702597932574,647.6424924474387 A135.57594280436322 135.57594280436322 0.2139295329695703 0 0 323,650.7330523832863 L323,659.8457617112683 A144.68865213234514 144.68865213234514 0.2139295329695703 0 1 292.28238425440156,656.5474704200375 L190.78297402067426,634.4963216471159 A135.57594280436322 135.57594280436322 0.2139295329695703 0 0 162,631.4057617112683 Z" style="fill: rgb(255, 127, 14);"/><title>Out-of-school children of primary school age, both sexes (number) → Vulnerable employment, total (% of total employment)
Vulnerable employment, total (% of total employment)
26.4m</title><text class="label" dy="0.35em" x="5" y="654.4489428289534"/></g><g class="link" style="opacity: 0.8;"><path d="M1,260.84249943171983 A42.944870950492486 42.944870950492486 0.9222740856076007 0 0 35.22608508884514,243.83673101862416 L119.269947491789,132.94267130120474 A53.61514721620789 53.61514721620789 0.9222740856076007 0 1 162,111.71157299277205 L162,122.38184925848743 A42.944870950492486 42.944870950492486 0.9222740856076007 0 0 127.77391491115486,139.38761767158311 L43.730052508211,250.28167738900254 A53.61514721620789 53.61514721620789 0.9222740856076007 0 1 1,271.51277569743525 ZM162,111.71157299277205 A201.3083080696738 201.3083080696738 0.14339111242315994 0 0 190.76700546216375,109.6455653881715 L292.7082095025738,94.92708860585738 A211.97858433538923 211.97858433538923 0.14339111242315994 0 1 323,92.75157299277204 L323,103.42184925848743 A201.3083080696738 201.3083080696738 0.14339111242315994 0 0 294.23299453783625,105.48785686308797 L192.29179049742618,120.2063336454021 A211.97858433538923 211.97858433538923 0.14339111242315994 0 1 162,122.38184925848743 Z" style="fill: rgb(158, 218, 229);"/><title>Food imports (% of merchandise imports) → Time required to start a business (days)
Time required to start a business (days)
31.0m</title><text class="label" dy="0.35em" x="5" y="266.17763756457754"/></g><g class="link" style="opacity: 0.8;"><path d="M1,282.18305196315066 A73.21372308235564 73.21372308235564 0.9312019043017765 0 1 59.742144898358454,311.6976942734796 L127.1925074725454,402.3673125304391 A43.38258542492272 43.38258542492272 0.9312019043017765 0 0 162,419.85613071106326 L162,430.5264069767787 A54.052861690638125 54.052861690638125 0.9312019043017765 0 1 118.63134041099454,408.7360811815133 L51.18097783680759,318.06646292455383 A62.54344681664025 62.54344681664025 0.9312019043017765 0 0 1,292.8533282288661 ZM162,419.85613071106326 A79.66762717401197 79.66762717401197 0.3908399747519591 0 0 192.35059201953547,413.8483459452528 L276.2968679441022,379.2593611083507 A122.59160249964901 122.59160249964901 0.3908399747519591 0 1 323,370.0146529622803 L323,380.6849292279957 A111.92132623393363 111.92132623393363 0.3908399747519591 0 0 280.3618716747781,389.1249852779752 L196.41559575021145,423.7139701148773 A90.33790343972736 90.33790343972736 0.3908399747519591 0 1 162,430.5264069767787 Z" style="fill: rgb(31, 119, 180);"/><title>Food imports (% of merchandise imports) → Firms that do not report all sales for tax purposes (% of firms)
Firms that do not report all sales for tax purposes (% of firms)
31.0m</title><text class="label" dy="0.35em" x="5" y="287.51819009600837"/></g><g class="link" style="opacity: 0.8;"><path d="M1,271.51277569743525 A142.5925540924997 142.5925540924997 0.219665327078316 0 1 32.07134594393917,274.939213425877 L132.7537393122964,297.41837398984853 A131.9222778267843 131.9222778267843 0.219665327078316 0 0 161.5,300.5884095702088 L161.5,311.2586858359242 A142.5925540924997 142.5925540924997 0.219665327078316 0 1 130.42865405606082,307.8322481074824 L29.746260687703582,285.3530875435109 A131.9222778267843 131.9222778267843 0.219665327078316 0 0 1,282.18305196315066 Z" style="fill: rgb(214, 39, 40);"/><title>Food imports (% of merchandise imports) → Unemployment, total (% of total labor force)
Unemployment, total (% of total labor force)
31.0m</title><text class="label" dy="0.35em" x="5" y="276.84791383029295"/></g><g class="link" style="opacity: 0.8;"><path d="M1,292.8533282288661 A62.54344681664025 62.54344681664025 1.3338136908784335 0 1 61.79540672282894,340.7134082275142 L111.57664372269467,546.8289802272495 A51.87317055092485 51.87317055092485 1.3338136908784335 0 0 162,586.5238518519176 L162,597.1941281176329 A62.54344681664025 62.54344681664025 1.3338136908784335 0 1 101.20459327717104,549.3340481189848 L51.42335627730533,343.2184761192494 A51.87317055092485 51.87317055092485 1.3338136908784335 0 0 1,303.5236044945815 ZM162,586.5238518519176 A93.9649166138702 93.9649166138702 0.3530396837907812 0 1 194.48852166654163,592.3190371847282 L292.7596264801999,628.5296830781151 A87.46271084063102 87.46271084063102 0.3530396837907812 0 0 323,633.9238518519177 L323,644.594128117633 A98.1329871063464 98.1329871063464 0.3530396837907812 0 1 289.070361229519,638.5418815128651 L190.79925641586075,602.3312356194782 A83.29464034815481 83.29464034815481 0.3530396837907812 0 0 162,597.1941281176329 Z" style="fill: rgb(255, 127, 14);"/><title>Food imports (% of merchandise imports) → Vulnerable employment, total (% of total employment)
Vulnerable employment, total (% of total employment)
31.0m</title><text class="label" dy="0.35em" x="5" y="298.1884663617238"/></g><g class="link" style="opacity: 0.8;"><path d="M1,331.89418608977155 A42.28902162442883 42.28902162442883 0.7547249327448038 0 0 29.97171474023491,320.41102583881946 L120.96075193500008,234.83937445285937 A59.90358749669949 59.90358749669949 0.7547249327448038 0 1 162,218.57315526858375 L162,236.1877211408544 A42.28902162442883 42.28902162442883 0.7547249327448038 0 0 133.02828525976508,247.67088139180652 L42.03924806499992,333.24253277776654 A59.90358749669949 59.90358749669949 0.7547249327448038 0 1 1,349.5087519620422 ZM162,218.57315526858375 A59.375130264587966 59.375130264587966 0.48562155569305654 0 0 189.71382560852388,211.7084998073825 L284.26080113012245,161.80877215818674 A82.99629981568879 82.99629981568879 0.48562155569305654 0 1 323,152.21315526858373 L323,169.82772114085438 A65.38173394341811 65.38173394341811 0.48562155569305654 0 0 292.48254320594765,177.3868300636886 L197.93556768434908,227.28655771288436 A76.98969613685864 76.98969613685864 0.48562155569305654 0 1 162,236.1877211408544 Z" style="fill: rgb(158, 218, 229);"/><title>Transport services (% of service exports, BoP) → Time required to start a business (days)
Time required to start a business (days)
51.1m</title><text class="label" dy="0.35em" x="5" y="340.7014690259069"/></g><g class="link" style="opacity: 0.8;"><path d="M1,367.12331783431284 A85.23823673170489 85.23823673170489 1.0715092297538078 0 1 75.83270420652775,411.54950509201444 L127.45940291697285,506.21187866919 A39.34348788053927 39.34348788053927 1.0715092297538078 0 0 162,526.717712986875 L162,544.3322788591457 A56.95805375280993 56.95805375280993 1.0715092297538078 0 1 111.9951506261258,514.6457290326714 L60.36845191568071,419.9833554554958 A67.62367085943421 67.62367085943421 1.0715092297538078 0 0 1,384.7378837065835 ZM162,526.717712986875 A45.515454351566675 45.515454351566675 0.6677191007614458 0 0 190.18301253403948,516.9426334142013 L283.91010895991786,443.0342888685349 A63.130020223837334 63.130020223837334 0.6677191007614458 0 1 323,429.47623523809204 L323,447.0908011103627 A45.51545435156666 45.51545435156666 0.6677191007614458 0 0 294.8169874659605,456.8658806830365 L201.08989104008216,530.7742252287028 A63.130020223837334 63.130020223837334 0.6677191007614458 0 1 162,544.3322788591457 Z" style="fill: rgb(31, 119, 180);"/><title>Transport services (% of service exports, BoP) → Firms that do not report all sales for tax purposes (% of firms)
Firms that do not report all sales for tax purposes (% of firms)
51.1m</title><text class="label" dy="0.35em" x="5" y="375.93060077044817"/></g><g class="link" style="opacity: 0.8;"><path d="M1,349.5087519620422 A97.95064057525848 97.95064057525848 0.28685774037585254 0 0 28.71413145164774,345.506261485571 L128.80200737928988,315.980948349994 A115.56520644752915 115.56520644752915 0.28685774037585254 0 1 161.5,311.2586858359242 L161.5,328.87325170819486 A97.95064057525848 97.95064057525848 0.28685774037585254 0 0 133.78586854835225,332.8757421846661 L33.69799262071013,362.4010553202431 A115.56520644752915 115.56520644752915 0.28685774037585254 0 1 1,367.12331783431284 Z" style="fill: rgb(214, 39, 40);"/><title>Transport services (% of service exports, BoP) → Unemployment, total (% of total labor force)
Unemployment, total (% of total labor force)
51.1m</title><text class="label" dy="0.35em" x="5" y="358.3160348981775"/></g><g class="link" style="opacity: 0.8;"><path d="M1,384.7378837065835 A67.62367085943421 67.62367085943421 1.3607451403326913 0 1 67.13731901448367,438.26134555758415 L113.09008298233466,653.803725696861 A50.00910498716354 50.00910498716354 1.3607451403326913 0 0 162,693.3854341277292 L162,711 A67.62367085943421 67.62367085943421 1.3607451403326913 0 1 95.86268098551635,657.4765381489992 L49.90991701766534,441.9341580097225 A50.00910498716354 50.00910498716354 1.3607451403326913 0 0 1,402.35244957885413 ZM162,693.3854341277292 A0 0 0 0 1 162,693.3854341277292 L323,693.3854341277294 A0 0 0 0 0 323,693.3854341277294 L323,711.0000000000001 A0 0 0 0 1 323,711.0000000000001 L162,711 A0 0 0 0 0 162,711 Z" style="fill: rgb(255, 127, 14);"/><title>Transport services (% of service exports, BoP) → Vulnerable employment, total (% of total employment)
Vulnerable employment, total (% of total employment)
51.1m</title><text class="label" dy="0.35em" x="5" y="393.5451666427188"/></g><g class="link" style="opacity: 0.8;"><path d="M1,483.64930983184763 A39.152285741638224 39.152285741638224 1.33135565522731 0 0 39.035301440646435,453.7823524696501 L92.12008568749111,236.3322324274724 A71.93208070229096 71.93208070229096 1.33135565522731 0 1 162,181.45951308008898 L162,209.09315526858376 A44.2984385137962 44.2984385137962 1.33135565522731 0 0 118.96536152855326,242.88580745329168 L65.8805772817086,460.3359274954693 A66.78592793013298 66.78592793013298 1.33135565522731 0 1 1,511.28295202034235 ZM162,181.45951308008898 A62.64832763992984 62.64832763992984 0.4336925790357924 0 0 188.32635468002766,175.65954518203193 L276.51060114210117,134.82160790305142 A110.62994200418353 110.62994200418353 0.4336925790357924 0 1 323,124.579513080089 L323,152.21315526858376 A82.99629981568879 82.99629981568879 0.4336925790357924 0 0 288.12293131532687,159.8969337942487 L199.93868485325342,200.73487107322921 A90.2819698284246 90.2819698284246 0.4336925790357924 0 1 162,209.09315526858376 Z" style="fill: rgb(158, 218, 229);"/><title>Time required to build a warehouse (days) → Time required to start a business (days)
Time required to start a business (days)
80.2m</title><text class="label" dy="0.35em" x="5" y="497.466130926095"/></g><g class="link" style="opacity: 0.8;"><path d="M1,538.9165942088372 A94.41957011862773 94.41957011862773 0.37911450599975716 0 0 35.94449379154598,532.2121172899494 L125.14866243973687,496.6743962000519 A99.57183731126955 99.57183731126955 0.37911450599975716 0 1 162,489.6040707983802 L162,517.237712986875 A71.9381951227748 71.9381951227748 0.37911450599975716 0 0 135.3758180673301,522.3458486009338 L46.171649419139214,557.8835696908313 A122.05321230712248 122.05321230712248 0.37911450599975716 0 1 1,566.550236397332 ZM162,489.6040707983802 A43.3762569537932 43.3762569537932 0.6478431417698884 0 0 188.1761812746624,480.8154879669894 L268.227037847264,420.2324685531684 A90.76366241233208 90.76366241233208 0.6478431417698884 0 1 323,401.84259304959727 L323,429.476235238092 A63.13002022383733 63.13002022383733 0.6478431417698884 0 0 284.9030555123138,442.26718242552676 L204.85219893971228,502.85020183934773 A71.00989914228796 71.00989914228796 0.6478431417698884 0 1 162,517.237712986875 Z" style="fill: rgb(31, 119, 180);"/><title>Time required to build a warehouse (days) → Firms that do not report all sales for tax purposes (% of firms)
Firms that do not report all sales for tax purposes (% of firms)
80.2m</title><text class="label" dy="0.35em" x="5" y="552.7334153030846"/></g><g class="link" style="opacity: 0.8;"><path d="M1,511.2829520203424 A66.78592793013298 66.78592793013298 1.3405694013842013 0 0 66.02375691449825,459.7374704817413 L80.1407109582495,399.50712259481446 A83.56415981214509 83.56415981214509 1.3405694013842013 0 1 161.5,335.0121759738481 L161.5,362.64581816234283 A55.93051762365034 55.93051762365034 1.3405694013842013 0 0 107.04522944014654,405.81307738842173 L92.92827539639529,466.04342527534857 A94.41957011862773 94.41957011862773 1.3405694013842013 0 1 1,538.9165942088372 Z" style="fill: rgb(214, 39, 40);"/><title>Time required to build a warehouse (days) → Unemployment, total (% of total labor force)
Unemployment, total (% of total labor force)
80.2m</title><text class="label" dy="0.35em" x="5" y="525.0997731145898"/></g><g class="link" style="opacity: 0.8;"><path d="M1,566.5502363973319 A70.34204626112773 70.34204626112773 0.6244092807415457 0 1 42.12323479648949,579.8231751476932 L137.0318931305699,648.2130836486429 A42.70840407263298 42.70840407263298 0.6244092807415457 0 0 162,656.2717919392345 L162,683.9054341277293 A70.34204626112773 70.34204626112773 0.6244092807415457 0 1 120.87676520351053,670.6324953773681 L25.96810686943011,602.2425868764184 A42.70840407263298 42.70840407263298 0.6244092807415457 0 0 1,594.1838785858267 ZM162,656.2717919392345 A422.83771349930504 422.83771349930504 0.07193069272785424 0 1 192.38878842671798,657.3652067274882 L294.5972049677127,664.7298349042929 A395.2040713108103 395.2040713108103 0.07193069272785424 0 0 323,665.7517919392346 L323,693.3854341277295 A422.83771349930504 422.83771349930504 0.07193069272785424 0 1 292.611211573282,692.2920193394758 L190.4027950322873,684.927391162671 A395.2040713108103 395.2040713108103 0.07193069272785424 0 0 162,683.9054341277293 Z" style="fill: rgb(255, 127, 14);"/><title>Time required to build a warehouse (days) → Vulnerable employment, total (% of total employment)
Vulnerable employment, total (% of total employment)
80.2m</title><text class="label" dy="0.35em" x="5" y="580.3670574915793"/></g></g><g class="nodes"><g class="node" transform="translate(0,200.8394611748586)"><title>Bound rate, simple mean, manufactured products (%)</title><line x1="0" x2="0" y1="0" y2="31.632456661671114" style="display: inline; stroke: rgb(0, 0, 0);"/><rect class="node-body" width="1" height="31.632456661671114" style="fill: none;"/><text class="node-value" dy=".35em" text-anchor="middle" transform="translate(0.5,15.816228330835557) rotate(-90)" style="display: none;"/><text class="node-title" dy=".35em" text-anchor="end" transform="translate(-4,15.816228330835557)" style="display: inline;">Bound rate, simple mean, manufactured products (%)</text><rect class="node-click-target" x="-5" y="-5" width="10" height="36.632456661671114" style="fill: none; visibility: hidden; pointer-events: all;"/></g><g class="node" transform="translate(0,79)"><title>Electricity production from renewable sources, excluding hydroelectric (% of total)</title><line x1="0" x2="0" y1="0" y2="7.242136294300678" style="display: inline; stroke: rgb(0, 0, 0);"/><rect class="node-body" width="1" height="7.242136294300678" style="fill: none;"/><text class="node-value" dy=".35em" text-anchor="middle" transform="translate(0.5,3.621068147150339) rotate(-90)" style="display: none;"/><text class="node-title" dy=".35em" text-anchor="end" transform="translate(-4,3.621068147150339)" style="display: inline;">Electricity production from renewable sources, excluding hydroelectric (% of total)</text><rect class="node-click-target" x="-5" y="-5" width="10" height="12.242136294300678" style="fill: none; visibility: hidden; pointer-events: all;"/></g><g class="node" transform="translate(0,260.84249943171983)"><title>Food imports (% of merchandise imports)</title><line x1="0" x2="0" y1="0" y2="42.681105062861604" style="display: inline; stroke: rgb(0, 0, 0);"/><rect class="node-body" width="1" height="42.681105062861604" style="fill: none;"/><text class="node-value" dy=".35em" text-anchor="middle" transform="translate(0.5,21.340552531430802) rotate(-90)" style="display: none;"/><text class="node-title" dy=".35em" text-anchor="end" transform="translate(-4,21.340552531430802)" style="display: inline;">Food imports (% of merchandise imports)</text><rect class="node-click-target" x="-5" y="-5" width="10" height="47.681105062861604" style="fill: none; visibility: hidden; pointer-events: all;"/></g><g class="node" transform="translate(323,342.9091988896372)"><title>Firms that do not report all sales for tax purposes (% of firms)</title><line x1="0" x2="0" y1="0" y2="104.1816022207255" style="display: inline; stroke: rgb(0, 0, 0);"/><rect class="node-body" width="1" height="104.1816022207255" style="fill: none;"/><text class="node-value" dy=".35em" text-anchor="middle" transform="translate(0.5,52.09080111036275) rotate(-90)" style="display: none;"/><text class="node-title" dy=".35em" text-anchor="start" transform="translate(5,52.09080111036275)" style="display: inline;">Firms that do not report all sales for tax purposes (% of firms)</text><rect class="node-click-target" x="-5" y="-5" width="10" height="109.1816022207255" style="fill: none; visibility: hidden; pointer-events: all;"/></g><g class="node" transform="translate(323,606.8183977792744)"><title>Vulnerable employment, total (% of total employment)</title><line x1="0" x2="0" y1="0" y2="104.1816022207255" style="display: inline; stroke: rgb(0, 0, 0);"/><rect class="node-body" width="1" height="104.1816022207255" style="fill: none;"/><text class="node-value" dy=".35em" text-anchor="middle" transform="translate(0.5,52.09080111036275) rotate(-90)" style="display: none;"/><text class="node-title" dy=".35em" text-anchor="start" transform="translate(5,52.09080111036275)" style="display: inline;">Vulnerable employment, total (% of total employment)</text><rect class="node-click-target" x="-5" y="-5" width="10" height="109.1816022207255" style="fill: none; visibility: hidden; pointer-events: all;"/></g><g class="node" transform="translate(0,114.61271788949082)"><title>Fuel exports (% of merchandise exports)</title><line x1="0" x2="0" y1="0" y2="6.111744785570423" style="display: inline; stroke: rgb(0, 0, 0);"/><rect class="node-body" width="1" height="6.111744785570423" style="fill: none;"/><text class="node-value" dy=".35em" text-anchor="middle" transform="translate(0.5,3.0558723927852114) rotate(-90)" style="display: none;"/><text class="node-title" dy=".35em" text-anchor="end" transform="translate(-4,3.0558723927852114)" style="display: inline;">Fuel exports (% of merchandise exports)</text><rect class="node-click-target" x="-5" y="-5" width="10" height="11.111744785570423" style="fill: none; visibility: hidden; pointer-events: all;"/></g><g class="node" transform="translate(161.5,245.6677211408544)"><title>Tariff rate, applied, simple mean, manufactured products (%)</title><line x1="0" x2="0" y1="0" y2="18.335234356711254" style="display: inline; stroke: rgb(0, 0, 0);"/><rect class="node-body" width="1" height="18.335234356711254" style="fill: none;"/><text class="node-value" dy=".35em" text-anchor="middle" transform="translate(0.5,9.167617178355627) rotate(-90)" style="display: none;"/><text class="node-title" dy=".35em" text-anchor="end" transform="translate(-4,9.167617178355627)" style="display: inline;">Tariff rate, applied, simple mean, manufactured products (%)</text><rect class="node-click-target" x="-5" y="-5" width="10" height="23.335234356711254" style="fill: none; visibility: hidden; pointer-events: all;"/></g><g class="node" transform="translate(0,687.3758790881345)"><title>Tariff rate, most favored nation, simple mean, primary products (%)</title><line x1="0" x2="0" y1="0" y2="23.624120911865475" style="display: inline; stroke: rgb(0, 0, 0);"/><rect class="node-body" width="1" height="23.624120911865475" style="fill: none;"/><text class="node-value" dy=".35em" text-anchor="middle" transform="translate(0.5,11.812060455932738) rotate(-90)" style="display: none;"/><text class="node-title" dy=".35em" text-anchor="end" transform="translate(-4,11.812060455932738)" style="display: inline;">Tariff rate, most favored nation, simple mean, primary products (%)</text><rect class="node-click-target" x="-5" y="-5" width="10" height="28.624120911865475" style="fill: none; visibility: hidden; pointer-events: all;"/></g><g class="node" transform="translate(0,483.64930983184763)"><title>Time required to build a warehouse (days)</title><line x1="0" x2="0" y1="0" y2="110.53456875397899" style="display: inline; stroke: rgb(0, 0, 0);"/><rect class="node-body" width="1" height="110.53456875397899" style="fill: none;"/><text class="node-value" dy=".35em" text-anchor="middle" transform="translate(0.5,55.267284376989494) rotate(-90)" style="display: none;"/><text class="node-title" dy=".35em" text-anchor="end" transform="translate(-4,55.267284376989494)" style="display: inline;">Time required to build a warehouse (days)</text><rect class="node-click-target" x="-5" y="-5" width="10" height="115.53456875397899" style="fill: none; visibility: hidden; pointer-events: all;"/></g><g class="node" transform="translate(323,79)"><title>Time required to start a business (days)</title><line x1="0" x2="0" y1="0" y2="104.18160222072552" style="display: inline; stroke: rgb(0, 0, 0);"/><rect class="node-body" width="1" height="104.18160222072552" style="fill: none;"/><text class="node-value" dy=".35em" text-anchor="middle" transform="translate(0.5,52.09080111036276) rotate(-90)" style="display: none;"/><text class="node-title" dy=".35em" text-anchor="start" transform="translate(5,52.09080111036276)" style="display: inline;">Time required to start a business (days)</text><rect class="node-click-target" x="-5" y="-5" width="10" height="109.18160222072552" style="fill: none; visibility: hidden; pointer-events: all;"/></g><g class="node" transform="translate(0,149.09504427025138)"><title>Bound rate, simple mean, all products (%)</title><line x1="0" x2="0" y1="0" y2="23.373835309417075" style="display: inline; stroke: rgb(0, 0, 0);"/><rect class="node-body" width="1" height="23.373835309417075" style="fill: none;"/><text class="node-value" dy=".35em" text-anchor="middle" transform="translate(0.5,11.686917654708537) rotate(-90)" style="display: none;"/><text class="node-title" dy=".35em" text-anchor="end" transform="translate(-4,11.686917654708537)" style="display: inline;">Bound rate, simple mean, all products (%)</text><rect class="node-click-target" x="-5" y="-5" width="10" height="28.373835309417075" style="fill: none; visibility: hidden; pointer-events: all;"/></g><g class="node" transform="translate(0,430.72303117404437)"><title>Import value index (2000 = 100)</title><line x1="0" x2="0" y1="0" y2="24.55569706261315" style="display: inline; stroke: rgb(0, 0, 0);"/><rect class="node-body" width="1" height="24.55569706261315" style="fill: none;"/><text class="node-value" dy=".35em" text-anchor="middle" transform="translate(0.5,12.277848531306574) rotate(-90)" style="display: none;"/><text class="node-title" dy=".35em" text-anchor="end" transform="translate(-4,12.277848531306574)" style="display: inline;">Import value index (2000 = 100)</text><rect class="node-click-target" x="-5" y="-5" width="10" height="29.55569706261315" style="fill: none; visibility: hidden; pointer-events: all;"/></g><g class="node" transform="translate(161.5,273.4829554975657)"><title>Unemployment, total (% of total labor force)</title><line x1="0" x2="0" y1="0" y2="104.18160222072555" style="display: inline; stroke: rgb(0, 0, 0);"/><rect class="node-body" width="1" height="104.18160222072555" style="fill: none;"/><text class="node-value" dy=".35em" text-anchor="middle" transform="translate(0.5,52.090801110362776) rotate(-90)" style="display: none;"/><text class="node-title" dy=".35em" text-anchor="start" transform="translate(5,52.090801110362776)" style="display: inline;">Unemployment, total (% of total labor force)</text><rect class="node-click-target" x="-5" y="-5" width="10" height="109.18160222072555" style="fill: none; visibility: hidden; pointer-events: all;"/></g><g class="node" transform="translate(0,331.89418608977155)"><title>Transport services (% of service exports, BoP)</title><line x1="0" x2="0" y1="0" y2="70.4582634890827" style="display: inline; stroke: rgb(0, 0, 0);"/><rect class="node-body" width="1" height="70.4582634890827" style="fill: none;"/><text class="node-value" dy=".35em" text-anchor="middle" transform="translate(0.5,35.22913174454135) rotate(-90)" style="display: none;"/><text class="node-title" dy=".35em" text-anchor="end" transform="translate(-4,35.22913174454135)" style="display: inline;">Transport services (% of service exports, BoP)</text><rect class="node-click-target" x="-5" y="-5" width="10" height="75.4582634890827" style="fill: none; visibility: hidden; pointer-events: all;"/></g><g class="node" transform="translate(0,622.5544601810168)"><title>Out-of-school children of primary school age, both sexes (number)</title><line x1="0" x2="0" y1="0" y2="36.45083731192756" style="display: inline; stroke: rgb(0, 0, 0);"/><rect class="node-body" width="1" height="36.45083731192756" style="fill: none;"/><text class="node-value" dy=".35em" text-anchor="middle" transform="translate(0.5,18.22541865596378) rotate(-90)" style="display: none;"/><text class="node-title" dy=".35em" text-anchor="end" transform="translate(-4,18.22541865596378)" style="display: inline;">Out-of-school children of primary school age, both sexes (number)</text><rect class="node-click-target" x="-5" y="-5" width="10" height="41.45083731192756" style="fill: none; visibility: hidden; pointer-events: all;"/></g></g><g class="slice-titles"/></g></svg>